:SAMPLES-PER-SECOND 30
:FRAME-RANGE 1-2045
:FULLY-SPECIFIED
:DEGREES
1662
root  55.596 34.015 -48.8337 -177.463 -36.5103 177.445
RightUpLeg  -27.2618 -1.44377 -16.5845
RightLeg  58.8232 -0.387796 -1.15988
RightFoot  -31.3236 2.45203 15.0592
RightToes  -5.28216e-011 1.2921e-014 -6.02303e-014
Spine  21.4703 3.91147 7.12529
Spine1  2.3373 6.80103 -6.89612
HEad  0.57132 17.8935 -9.7295
LeftShoulder1  2.14778 -7.63722 -12.8395
LeftArm  -14.5344 -12.3079 -24.6198
LeftForeArm  -42.3538 -19.8689 -6.37599
LeftHand  0.419085 0.473791 -10.0387
RightShoulder  1.86812 10.1207 6.34173
RightArm  24.2785 58.8578 105.986
RightForeArm  17.9286 14.1813 6.69388
RightHand  0.0967687 -7.27636 -7.78997
LeftUpLeg  -45.0266 -5.35758 12.2888
LeftLeg  39.4029 -6.39933 -5.21836
LeftFoot  -1.98332 1.63397 -19.6514
LeftToes  9.43379e-011 5.24309e-011 -4.66411e-011
1663
root  55.7253 34.2144 -48.9722 -178.18 -39.2786 178.183
RightUpLeg  -24.2861 -2.72188 -14.463
RightLeg  59.8203 -1.21403 -2.74777
RightFoot  -32.5998 2.44651 14.1624
RightToes  -5.28216e-011 1.2921e-014 -6.02303e-014
Spine  20.1452 3.9422 6.17655
Spine1  2.37284 6.42601 -6.76047
HEad  0.81832 17.1868 -6.33892
LeftShoulder1  2.19478 -8.82545 -11.137
LeftArm  -12.0074 -14.3352 -20.1707
LeftForeArm  -43.2612 -12.5364 -7.55662
LeftHand  0.544596 0.110036 -12.0519
RightShoulder  1.89589 10.3206 6.34253
RightArm  28.6619 58.2932 109.471
RightForeArm  17.9845 14.068 7.27292
RightHand  0.167275 -7.65111 -10.0297
LeftUpLeg  -44.449 -6.2609 12.5627
LeftLeg  37.7455 -7.43244 -5.75661
LeftFoot  -1.93378 1.71439 -20.5032
LeftToes  9.43379e-011 5.24309e-011 -4.66411e-011
1664
root  55.9123 34.4049 -49.1807 -178.663 -41.7959 178.923
RightUpLeg  -21.4631 -4.7319 -11.6902
RightLeg  62.1636 -2.04843 -4.75215
RightFoot  -32.9016 2.27486 13.0813
RightToes  -5.28216e-011 1.2921e-014 -6.02303e-014
Spine  18.1457 4.0156 4.86212
Spine1  2.50673 6.04479 -6.64971
HEad  1.24416 16.8133 -3.01767
LeftShoulder1  2.06208 -9.86133 -8.42281
LeftArm  -12.2943 -14.9899 -17.8199
LeftForeArm  -35.9204 -5.53666 -8.00659
LeftHand  0.771577 -1.09624 -13.7091
RightShoulder  1.80189 10.3702 5.50954
RightArm  32.6637 58.0219 112.941
RightForeArm  20.6526 13.5795 7.8339
RightHand  0.164749 -7.29972 -11.5199
LeftUpLeg  -43.9607 -6.70585 12.9578
LeftLeg  35.8793 -8.2312 -5.98343
LeftFoot  -1.89485 1.79914 -21.4175
LeftToes  9.43379e-011 5.24309e-011 -4.66411e-011
1665
root  56.1679 34.6025 -49.4197 -178.821 -43.6405 179.454
RightUpLeg  -18.6771 -6.6569 -8.82858
RightLeg  64.1767 -1.80493 -4.66282
RightFoot  -33.051 2.18432 12.5279
RightToes  -5.28216e-011 1.2921e-014 -6.02303e-014
Spine  16.0052 4.26679 3.63687
Spine1  2.36965 6.0513 -7.16526
HEad  2.15676 16.3881 -0.699489
LeftShoulder1  1.82536 -9.47478 -6.87728
LeftArm  -15.0067 -15.0905 -16.799
LeftForeArm  -26.2686 -2.15067 -7.22299
LeftHand  0.476861 -0.0873555 -10.1556
RightShoulder  1.66971 10.5875 4.20067
RightArm  34.4627 57.9957 113.496
RightForeArm  24.1065 13.5091 8.07585
RightHand  0.06127 -6.23968 -11.319
LeftUpLeg  -43.4856 -6.89298 13.4575
LeftLeg  33.8135 -8.19533 -5.5098
LeftFoot  -1.79338 1.85744 -21.8764
LeftToes  9.43379e-011 5.24309e-011 -4.66411e-011
1666
root  56.4528 34.808 -49.6377 -179.01 -45.0348 179.78
RightUpLeg  -15.3489 -8.65799 -6.30013
RightLeg  64.6404 -1.23039 -3.4459
RightFoot  -32.6633 2.18248 12.7356
RightToes  -5.28216e-011 1.2921e-014 -6.02303e-014
Spine  13.8482 4.56205 3.47739
Spine1  2.53126 6.58774 -9.01356
HEad  4.29241 15.4656 0.863267
LeftShoulder1  1.61234 -8.25437 -6.50283
LeftArm  -17.5686 -15.6054 -16.4344
LeftForeArm  -25.7556 0.538569 -6.01965
LeftHand  0.438769 0.240344 -9.99218
RightShoulder  1.65069 10.5062 4.12419
RightArm  37.6511 57.4279 110.237
RightForeArm  26.7341 15.2352 7.89412
RightHand  -0.0893391 -4.64365 -11.4185
LeftUpLeg  -42.6891 -7.23679 13.9643
LeftLeg  31.5709 -8.08991 -4.98053
LeftFoot  -1.75762 1.87941 -22.052
LeftToes  9.43379e-011 5.24309e-011 -4.66411e-011
1667
root  56.7432 35.0388 -49.8055 -179.329 -46.3417 -179.966
RightUpLeg  -11.3288 -11.5728 -4.32089
RightLeg  62.5215 -1.71592 -4.13921
RightFoot  -32.6814 2.23253 12.9881
RightToes  -5.28216e-011 1.2921e-014 -6.02303e-014
Spine  11.8482 4.96199 3.64173
Spine1  2.48962 7.20512 -10.4635
HEad  7.88324 14.0749 1.82544
LeftShoulder1  1.46373 -6.61414 -7.41243
LeftArm  -20.7892 -15.9078 -16.5249
LeftForeArm  -26.4052 2.32856 -4.43217
LeftHand  0.329015 0.922826 -8.77793
RightShoulder  1.77399 10.535 5.10514
RightArm  45.5704 55.8763 103.973
RightForeArm  18.1062 19.7119 5.92559
RightHand  -0.11238 -4.25026 -9.85471
LeftUpLeg  -41.563 -7.80713 14.3847
LeftLeg  29.016 -8.22344 -4.56884
LeftFoot  -1.66628 1.91748 -22.2885
LeftToes  9.43379e-011 5.24309e-011 -4.66411e-011
1668
root  56.9951 35.2977 -49.9295 179.634 -47.9975 -179.149
RightUpLeg  -6.35609 -15.708 -2.91769
RightLeg  57.132 -3.8797 -6.89131
RightFoot  -31.3769 2.05766 12.8163
RightToes  -5.28216e-011 1.2921e-014 -6.02303e-014
Spine  9.89957 5.23311 4.59995
Spine1  2.58196 7.60569 -11.0004
HEad  11.7934 12.6743 1.69095
LeftShoulder1  1.30503 -4.88656 -8.72796
LeftArm  -22.0488 -15.7222 -17.3498
LeftForeArm  -27.9712 3.31967 -3.6535
LeftHand  0.214167 1.62476 -6.99203
RightShoulder  1.79218 10.0818 5.74659
RightArm  47.7152 52.9656 98.1113
RightForeArm  13.5168 24.3555 4.50339
RightHand  -0.1646 -2.56616 -6.33655
LeftUpLeg  -40.1422 -8.68281 14.9837
LeftLeg  26.2554 -8.83304 -4.38163
LeftFoot  -1.42497 1.98107 -22.4802
LeftToes  9.43379e-011 5.24309e-011 -4.66411e-011
1669
root  57.3308 35.4492 -49.9879 178.581 -49.0234 -178.289
RightUpLeg  -1.11804 -18.8278 -2.2683
RightLeg  48.4103 -5.02262 -6.37423
RightFoot  -34.5017 2.94004 15.422
RightToes  -5.28216e-011 1.2921e-014 -6.02303e-014
Spine  8.09413 5.46329 5.70004
Spine1  2.75952 8.016 -11.6589
HEad  15.7091 12.0118 0.929085
LeftShoulder1  1.16686 -3.59977 -9.80658
LeftArm  -21.525 -13.2469 -18.4275
LeftForeArm  -29.1102 3.50293 -3.50198
LeftHand  0.290741 1.07453 -8.07779
RightShoulder  1.83943 9.75321 6.53319
RightArm  46.849 49.9507 93.2664
RightForeArm  15.18 27.6323 5.14146
RightHand  -0.121351 -2.57992 -4.53849
LeftUpLeg  -39.0144 -8.99631 15.6868
LeftLeg  23.9263 -9.49376 -4.25555
LeftFoot  -1.3323 2.03798 -22.909
LeftToes  9.43379e-011 5.24309e-011 -4.66411e-011
1670
root  57.7814 35.5218 -49.9295 177.284 -49.2144 -177.378
RightUpLeg  1.8919 -18.9484 -1.05319
RightLeg  42.646 -6.34019 -6.51266
RightFoot  -36.6045 2.81749 13.6389
RightToes  -5.28216e-011 1.2921e-014 -6.02303e-014
Spine  6.83942 5.68831 6.86151
Spine1  3.07521 8.39628 -12.023
HEad  18.4572 12.4186 -0.4289
LeftShoulder1  1.00372 -2.25535 -11.0844
LeftArm  -19.4423 -9.27814 -19.5125
LeftForeArm  -29.0452 2.32615 -4.17278
LeftHand  0.327446 0.791012 -8.46312
RightShoulder  1.97459 9.68363 7.78963
RightArm  48.997 47.1879 89.2151
RightForeArm  15.1364 29.6677 5.61935
RightHand  -0.107279 -2.92622 -4.43018
LeftUpLeg  -37.8546 -8.74065 16.5107
LeftLeg  21.8787 -9.87457 -4.01773
LeftFoot  -1.25256 2.07231 -23.1114
LeftToes  9.43379e-011 5.24309e-011 -4.66411e-011
1671
root  58.4204 35.4839 -49.6859 176.273 -48.2935 -176.924
RightUpLeg  2.13374 -17.0598 0.464189
RightLeg  41.1065 -7.56017 -7.29529
RightFoot  -37.8128 2.57005 11.9946
RightToes  -5.28216e-011 1.2921e-014 -6.02303e-014
Spine  6.46978 5.92586 7.53932
Spine1  3.9134 8.87746 -12.3948
HEad  19.1055 14.2659 -1.75163
LeftShoulder1  0.755789 -0.572453 -12.6723
LeftArm  -17.03 -4.36532 -20.8256
LeftForeArm  -27.6171 0.0906742 -5.09418
LeftHand  0.328513 0.713613 -8.33638
RightShoulder  2.04739 9.4795 8.7004
RightArm  51.6078 43.9923 86.6585
RightForeArm  14.7543 30.9262 5.94578
RightHand  -0.104596 -2.92645 -4.30041
LeftUpLeg  -36.9118 -8.43821 17.5525
LeftLeg  20.2894 -9.30469 -3.46865
LeftFoot  -2.05797 1.88659 -22.8153
LeftToes  9.43379e-011 5.24309e-011 -4.66411e-011
